<svg width="342" height="342" viewBox="0 0 342 342" fill="none" xmlns="http://www.w3.org/2000/svg">
<circle cx="2" cy="2" r="2" fill="#313131"/>
<circle cx="2" cy="28" r="2" fill="#D9D9D9" fill-opacity="0.15"/>
<circle cx="2" cy="54" r="2" fill="#D9D9D9" fill-opacity="0.15"/>
<circle cx="2" cy="80" r="2" fill="#D9D9D9" fill-opacity="0.15"/>
<circle cx="2" cy="106" r="2" fill="#D9D9D9" fill-opacity="0.15"/>
<circle cx="2" cy="132" r="2" fill="#D9D9D9" fill-opacity="0.15"/>
<circle cx="2" cy="158" r="2" fill="#D9D9D9" fill-opacity="0.15"/>
<circle cx="2" cy="184" r="2" fill="#D9D9D9" fill-opacity="0.15"/>
<circle cx="2" cy="210" r="2" fill="#D9D9D9" fill-opacity="0.15"/>
<circle cx="2" cy="236" r="2" fill="#D9D9D9" fill-opacity="0.15"/>
<circle cx="2" cy="262" r="2" fill="#D9D9D9" fill-opacity="0.15"/>
<circle cx="2" cy="288" r="2" fill="#D9D9D9" fill-opacity="0.15"/>
<circle cx="2" cy="314" r="2" fill="#D9D9D9" fill-opacity="0.15"/>
<circle cx="2" cy="340" r="2" fill="#D9D9D9" fill-opacity="0.15"/>
<circle cx="28" cy="2" r="2" fill="#D9D9D9" fill-opacity="0.15"/>
<circle cx="28" cy="28" r="2" fill="#D9D9D9" fill-opacity="0.15"/>
<circle cx="28" cy="54" r="2" fill="#D9D9D9" fill-opacity="0.15"/>
<circle cx="28" cy="80" r="2" fill="#D9D9D9" fill-opacity="0.15"/>
<circle cx="28" cy="106" r="2" fill="#D9D9D9" fill-opacity="0.15"/>
<circle cx="28" cy="132" r="2" fill="#D9D9D9" fill-opacity="0.15"/>
<circle cx="28" cy="158" r="2" fill="#D9D9D9" fill-opacity="0.15"/>
<circle cx="28" cy="184" r="2" fill="#D9D9D9" fill-opacity="0.15"/>
<circle cx="28" cy="210" r="2" fill="#D9D9D9" fill-opacity="0.15"/>
<circle cx="28" cy="236" r="2" fill="#D9D9D9" fill-opacity="0.15"/>
<circle cx="28" cy="262" r="2" fill="#D9D9D9" fill-opacity="0.15"/>
<circle cx="28" cy="288" r="2" fill="#D9D9D9" fill-opacity="0.15"/>
<circle cx="28" cy="314" r="2" fill="#D9D9D9" fill-opacity="0.15"/>
<circle cx="28" cy="340" r="2" fill="#D9D9D9" fill-opacity="0.15"/>
<circle cx="54" cy="2" r="2" fill="#D9D9D9" fill-opacity="0.15"/>
<circle cx="54" cy="28" r="2" fill="#D9D9D9" fill-opacity="0.15"/>
<circle cx="54" cy="54" r="2" fill="#D9D9D9" fill-opacity="0.15"/>
<circle cx="54" cy="80" r="2" fill="#D9D9D9" fill-opacity="0.15"/>
<circle cx="54" cy="106" r="2" fill="#D9D9D9" fill-opacity="0.15"/>
<circle cx="54" cy="132" r="2" fill="#D9D9D9" fill-opacity="0.15"/>
<circle cx="54" cy="158" r="2" fill="#D9D9D9" fill-opacity="0.15"/>
<circle cx="54" cy="184" r="2" fill="#D9D9D9" fill-opacity="0.15"/>
<circle cx="54" cy="210" r="2" fill="#D9D9D9" fill-opacity="0.15"/>
<circle cx="54" cy="236" r="2" fill="#D9D9D9" fill-opacity="0.15"/>
<circle cx="54" cy="262" r="2" fill="#D9D9D9" fill-opacity="0.15"/>
<circle cx="54" cy="288" r="2" fill="#D9D9D9" fill-opacity="0.15"/>
<circle cx="54" cy="314" r="2" fill="#D9D9D9" fill-opacity="0.15"/>
<circle cx="54" cy="340" r="2" fill="#D9D9D9" fill-opacity="0.15"/>
<circle cx="80" cy="2" r="2" fill="#D9D9D9" fill-opacity="0.15"/>
<circle cx="80" cy="28" r="2" fill="#D9D9D9" fill-opacity="0.15"/>
<circle cx="80" cy="54" r="2" fill="#D9D9D9" fill-opacity="0.15"/>
<circle cx="80" cy="80" r="2" fill="#D9D9D9" fill-opacity="0.15"/>
<circle cx="80" cy="106" r="2" fill="#D9D9D9" fill-opacity="0.15"/>
<circle cx="80" cy="132" r="2" fill="#D9D9D9" fill-opacity="0.15"/>
<circle cx="80" cy="158" r="2" fill="#D9D9D9" fill-opacity="0.15"/>
<circle cx="80" cy="184" r="2" fill="#D9D9D9" fill-opacity="0.15"/>
<circle cx="80" cy="210" r="2" fill="#D9D9D9" fill-opacity="0.15"/>
<circle cx="80" cy="236" r="2" fill="#D9D9D9" fill-opacity="0.15"/>
<circle cx="80" cy="262" r="2" fill="#D9D9D9" fill-opacity="0.15"/>
<circle cx="80" cy="288" r="2" fill="#D9D9D9" fill-opacity="0.15"/>
<circle cx="80" cy="314" r="2" fill="#D9D9D9" fill-opacity="0.15"/>
<circle cx="80" cy="340" r="2" fill="#D9D9D9" fill-opacity="0.15"/>
<circle cx="106" cy="2" r="2" fill="#D9D9D9" fill-opacity="0.15"/>
<circle cx="106" cy="28" r="2" fill="#D9D9D9" fill-opacity="0.15"/>
<circle cx="106" cy="54" r="2" fill="#D9D9D9" fill-opacity="0.15"/>
<circle cx="106" cy="80" r="2" fill="#D9D9D9" fill-opacity="0.15"/>
<circle cx="106" cy="106" r="2" fill="#D9D9D9" fill-opacity="0.15"/>
<circle cx="106" cy="132" r="2" fill="#D9D9D9" fill-opacity="0.15"/>
<circle cx="106" cy="158" r="2" fill="#D9D9D9" fill-opacity="0.15"/>
<circle cx="106" cy="184" r="2" fill="#D9D9D9" fill-opacity="0.15"/>
<circle cx="106" cy="210" r="2" fill="#D9D9D9" fill-opacity="0.15"/>
<circle cx="106" cy="236" r="2" fill="#D9D9D9" fill-opacity="0.15"/>
<circle cx="106" cy="262" r="2" fill="#D9D9D9" fill-opacity="0.15"/>
<circle cx="106" cy="288" r="2" fill="#D9D9D9" fill-opacity="0.15"/>
<circle cx="106" cy="314" r="2" fill="#D9D9D9" fill-opacity="0.15"/>
<circle cx="106" cy="340" r="2" fill="#D9D9D9" fill-opacity="0.15"/>
<circle cx="132" cy="2" r="2" fill="#D9D9D9" fill-opacity="0.15"/>
<circle cx="132" cy="28" r="2" fill="#D9D9D9" fill-opacity="0.15"/>
<circle cx="132" cy="54" r="2" fill="#D9D9D9" fill-opacity="0.15"/>
<circle cx="132" cy="80" r="2" fill="#D9D9D9" fill-opacity="0.15"/>
<circle cx="132" cy="106" r="2" fill="#D9D9D9" fill-opacity="0.15"/>
<circle cx="132" cy="132" r="2" fill="#D9D9D9" fill-opacity="0.15"/>
<circle cx="132" cy="158" r="2" fill="#D9D9D9" fill-opacity="0.15"/>
<circle cx="132" cy="184" r="2" fill="#D9D9D9" fill-opacity="0.15"/>
<circle cx="132" cy="210" r="2" fill="#D9D9D9" fill-opacity="0.15"/>
<circle cx="132" cy="236" r="2" fill="#D9D9D9" fill-opacity="0.15"/>
<circle cx="132" cy="262" r="2" fill="#D9D9D9" fill-opacity="0.15"/>
<circle cx="132" cy="288" r="2" fill="#D9D9D9" fill-opacity="0.15"/>
<circle cx="132" cy="314" r="2" fill="#D9D9D9" fill-opacity="0.15"/>
<circle cx="132" cy="340" r="2" fill="#D9D9D9" fill-opacity="0.15"/>
<circle cx="158" cy="2" r="2" fill="#D9D9D9" fill-opacity="0.15"/>
<circle cx="158" cy="28" r="2" fill="#D9D9D9" fill-opacity="0.15"/>
<circle cx="158" cy="54" r="2" fill="#D9D9D9" fill-opacity="0.15"/>
<circle cx="158" cy="80" r="2" fill="#D9D9D9" fill-opacity="0.15"/>
<circle cx="158" cy="106" r="2" fill="#D9D9D9" fill-opacity="0.15"/>
<circle cx="158" cy="132" r="2" fill="#D9D9D9" fill-opacity="0.15"/>
<circle cx="158" cy="158" r="2" fill="#D9D9D9" fill-opacity="0.15"/>
<circle cx="158" cy="184" r="2" fill="#D9D9D9" fill-opacity="0.15"/>
<circle cx="158" cy="210" r="2" fill="#D9D9D9" fill-opacity="0.15"/>
<circle cx="158" cy="236" r="2" fill="#D9D9D9" fill-opacity="0.15"/>
<circle cx="158" cy="262" r="2" fill="#D9D9D9" fill-opacity="0.15"/>
<circle cx="158" cy="288" r="2" fill="#D9D9D9" fill-opacity="0.15"/>
<circle cx="158" cy="314" r="2" fill="#D9D9D9" fill-opacity="0.15"/>
<circle cx="158" cy="340" r="2" fill="#D9D9D9" fill-opacity="0.15"/>
<circle cx="184" cy="2" r="2" fill="#D9D9D9" fill-opacity="0.15"/>
<circle cx="184" cy="28" r="2" fill="#D9D9D9" fill-opacity="0.15"/>
<circle cx="184" cy="54" r="2" fill="#D9D9D9" fill-opacity="0.15"/>
<circle cx="184" cy="80" r="2" fill="#D9D9D9" fill-opacity="0.15"/>
<circle cx="184" cy="106" r="2" fill="#D9D9D9" fill-opacity="0.15"/>
<circle cx="184" cy="132" r="2" fill="#D9D9D9" fill-opacity="0.15"/>
<circle cx="184" cy="158" r="2" fill="#D9D9D9" fill-opacity="0.15"/>
<circle cx="184" cy="184" r="2" fill="#D9D9D9" fill-opacity="0.15"/>
<circle cx="184" cy="210" r="2" fill="#D9D9D9" fill-opacity="0.15"/>
<circle cx="184" cy="236" r="2" fill="#D9D9D9" fill-opacity="0.15"/>
<circle cx="184" cy="262" r="2" fill="#D9D9D9" fill-opacity="0.15"/>
<circle cx="184" cy="288" r="2" fill="#D9D9D9" fill-opacity="0.15"/>
<circle cx="184" cy="314" r="2" fill="#D9D9D9" fill-opacity="0.15"/>
<circle cx="184" cy="340" r="2" fill="#D9D9D9" fill-opacity="0.15"/>
<circle cx="210" cy="2" r="2" fill="#D9D9D9" fill-opacity="0.15"/>
<circle cx="210" cy="28" r="2" fill="#D9D9D9" fill-opacity="0.15"/>
<circle cx="210" cy="54" r="2" fill="#D9D9D9" fill-opacity="0.15"/>
<circle cx="210" cy="80" r="2" fill="#D9D9D9" fill-opacity="0.15"/>
<circle cx="210" cy="106" r="2" fill="#D9D9D9" fill-opacity="0.15"/>
<circle cx="210" cy="132" r="2" fill="#D9D9D9" fill-opacity="0.15"/>
<circle cx="210" cy="158" r="2" fill="#D9D9D9" fill-opacity="0.15"/>
<circle cx="210" cy="184" r="2" fill="#D9D9D9" fill-opacity="0.15"/>
<circle cx="210" cy="210" r="2" fill="#D9D9D9" fill-opacity="0.15"/>
<circle cx="210" cy="236" r="2" fill="#D9D9D9" fill-opacity="0.15"/>
<circle cx="210" cy="262" r="2" fill="#D9D9D9" fill-opacity="0.15"/>
<circle cx="210" cy="288" r="2" fill="#D9D9D9" fill-opacity="0.15"/>
<circle cx="210" cy="314" r="2" fill="#D9D9D9" fill-opacity="0.15"/>
<circle cx="210" cy="340" r="2" fill="#D9D9D9" fill-opacity="0.15"/>
<circle cx="236" cy="2" r="2" fill="#D9D9D9" fill-opacity="0.15"/>
<circle cx="236" cy="28" r="2" fill="#D9D9D9" fill-opacity="0.15"/>
<circle cx="236" cy="54" r="2" fill="#D9D9D9" fill-opacity="0.15"/>
<circle cx="236" cy="80" r="2" fill="#D9D9D9" fill-opacity="0.15"/>
<circle cx="236" cy="106" r="2" fill="#D9D9D9" fill-opacity="0.15"/>
<circle cx="236" cy="132" r="2" fill="#D9D9D9" fill-opacity="0.15"/>
<circle cx="236" cy="158" r="2" fill="#D9D9D9" fill-opacity="0.15"/>
<circle cx="236" cy="184" r="2" fill="#D9D9D9" fill-opacity="0.15"/>
<circle cx="236" cy="210" r="2" fill="#D9D9D9" fill-opacity="0.15"/>
<circle cx="236" cy="236" r="2" fill="#D9D9D9" fill-opacity="0.15"/>
<circle cx="236" cy="262" r="2" fill="#D9D9D9" fill-opacity="0.15"/>
<circle cx="236" cy="288" r="2" fill="#D9D9D9" fill-opacity="0.15"/>
<circle cx="236" cy="314" r="2" fill="#D9D9D9" fill-opacity="0.15"/>
<circle cx="236" cy="340" r="2" fill="#D9D9D9" fill-opacity="0.15"/>
<circle cx="262" cy="2" r="2" fill="#D9D9D9" fill-opacity="0.15"/>
<circle cx="262" cy="28" r="2" fill="#D9D9D9" fill-opacity="0.15"/>
<circle cx="262" cy="54" r="2" fill="#D9D9D9" fill-opacity="0.15"/>
<circle cx="262" cy="80" r="2" fill="#D9D9D9" fill-opacity="0.15"/>
<circle cx="262" cy="106" r="2" fill="#D9D9D9" fill-opacity="0.15"/>
<circle cx="262" cy="132" r="2" fill="#D9D9D9" fill-opacity="0.15"/>
<circle cx="262" cy="158" r="2" fill="#D9D9D9" fill-opacity="0.15"/>
<circle cx="262" cy="184" r="2" fill="#D9D9D9" fill-opacity="0.15"/>
<circle cx="262" cy="210" r="2" fill="#D9D9D9" fill-opacity="0.15"/>
<circle cx="262" cy="236" r="2" fill="#D9D9D9" fill-opacity="0.15"/>
<circle cx="262" cy="262" r="2" fill="#D9D9D9" fill-opacity="0.15"/>
<circle cx="262" cy="288" r="2" fill="#D9D9D9" fill-opacity="0.15"/>
<circle cx="262" cy="314" r="2" fill="#D9D9D9" fill-opacity="0.15"/>
<circle cx="262" cy="340" r="2" fill="#D9D9D9" fill-opacity="0.15"/>
<circle cx="288" cy="2" r="2" fill="#D9D9D9" fill-opacity="0.15"/>
<circle cx="288" cy="28" r="2" fill="#D9D9D9" fill-opacity="0.15"/>
<circle cx="288" cy="54" r="2" fill="#D9D9D9" fill-opacity="0.15"/>
<circle cx="288" cy="80" r="2" fill="#D9D9D9" fill-opacity="0.15"/>
<circle cx="288" cy="106" r="2" fill="#D9D9D9" fill-opacity="0.15"/>
<circle cx="288" cy="132" r="2" fill="#D9D9D9" fill-opacity="0.15"/>
<circle cx="288" cy="158" r="2" fill="#D9D9D9" fill-opacity="0.15"/>
<circle cx="288" cy="184" r="2" fill="#D9D9D9" fill-opacity="0.15"/>
<circle cx="288" cy="210" r="2" fill="#D9D9D9" fill-opacity="0.15"/>
<circle cx="288" cy="236" r="2" fill="#D9D9D9" fill-opacity="0.15"/>
<circle cx="288" cy="262" r="2" fill="#D9D9D9" fill-opacity="0.15"/>
<circle cx="288" cy="288" r="2" fill="#D9D9D9" fill-opacity="0.15"/>
<circle cx="288" cy="314" r="2" fill="#D9D9D9" fill-opacity="0.15"/>
<circle cx="288" cy="340" r="2" fill="#D9D9D9" fill-opacity="0.15"/>
<circle cx="314" cy="2" r="2" fill="#D9D9D9" fill-opacity="0.15"/>
<circle cx="314" cy="28" r="2" fill="#D9D9D9" fill-opacity="0.15"/>
<circle cx="314" cy="54" r="2" fill="#D9D9D9" fill-opacity="0.15"/>
<circle cx="314" cy="80" r="2" fill="#D9D9D9" fill-opacity="0.15"/>
<circle cx="314" cy="106" r="2" fill="#D9D9D9" fill-opacity="0.15"/>
<circle cx="314" cy="132" r="2" fill="#D9D9D9" fill-opacity="0.15"/>
<circle cx="314" cy="158" r="2" fill="#D9D9D9" fill-opacity="0.15"/>
<circle cx="314" cy="184" r="2" fill="#D9D9D9" fill-opacity="0.15"/>
<circle cx="314" cy="210" r="2" fill="#D9D9D9" fill-opacity="0.15"/>
<circle cx="314" cy="236" r="2" fill="#D9D9D9" fill-opacity="0.15"/>
<circle cx="314" cy="262" r="2" fill="#D9D9D9" fill-opacity="0.15"/>
<circle cx="314" cy="288" r="2" fill="#D9D9D9" fill-opacity="0.15"/>
<circle cx="314" cy="314" r="2" fill="#D9D9D9" fill-opacity="0.15"/>
<circle cx="314" cy="340" r="2" fill="#D9D9D9" fill-opacity="0.15"/>
<circle cx="340" cy="2" r="2" fill="#D9D9D9" fill-opacity="0.15"/>
<circle cx="340" cy="28" r="2" fill="#D9D9D9" fill-opacity="0.15"/>
<circle cx="340" cy="54" r="2" fill="#D9D9D9" fill-opacity="0.15"/>
<circle cx="340" cy="80" r="2" fill="#D9D9D9" fill-opacity="0.15"/>
<circle cx="340" cy="106" r="2" fill="#D9D9D9" fill-opacity="0.15"/>
<circle cx="340" cy="132" r="2" fill="#D9D9D9" fill-opacity="0.15"/>
<circle cx="340" cy="158" r="2" fill="#D9D9D9" fill-opacity="0.15"/>
<circle cx="340" cy="184" r="2" fill="#D9D9D9" fill-opacity="0.15"/>
<circle cx="340" cy="210" r="2" fill="#D9D9D9" fill-opacity="0.15"/>
<circle cx="340" cy="236" r="2" fill="#D9D9D9" fill-opacity="0.15"/>
<circle cx="340" cy="262" r="2" fill="#D9D9D9" fill-opacity="0.15"/>
<circle cx="340" cy="288" r="2" fill="#D9D9D9" fill-opacity="0.15"/>
<circle cx="340" cy="314" r="2" fill="#D9D9D9" fill-opacity="0.15"/>
<circle cx="340" cy="340" r="2" fill="#D9D9D9" fill-opacity="0.15"/>
</svg>
